<?xml version="1.0" standalone="no"?>
<!DOCTYPE svg PUBLIC "-//W3C//DTD SVG 20010904//EN"
 "http://www.w3.org/TR/2001/REC-SVG-20010904/DTD/svg10.dtd">
<svg version="1.0" xmlns="http://www.w3.org/2000/svg"
 width="512.000000pt" height="512.000000pt" viewBox="0 0 512.000000 512.000000"
 preserveAspectRatio="xMidYMid meet">
<metadata>
Created by potrace 1.14, written by Peter Selinger 2001-2017
</metadata>
<g transform="translate(0.000000,512.000000) scale(0.100000,-0.100000)"
fill="#000000" stroke="none">
<path d="M2222 3610 c-66 -30 -85 -68 -87 -172 -1 -48 -4 -90 -6 -92 -2 -3
-38 -7 -79 -11 -346 -29 -587 -98 -745 -215 -57 -42 -107 -102 -130 -155 -32
-72 -44 -103 -60 -145 -10 -25 -23 -58 -30 -75 -7 -16 -59 -154 -115 -305 -56
-151 -106 -282 -110 -290 -7 -12 -32 -15 -114 -16 -86 -1 -113 -6 -151 -24
-80 -38 -120 -107 -157 -266 -25 -108 7 -136 159 -137 91 0 103 -2 98 -16 -54
-137 -50 -71 -50 -866 l0 -730 24 -32 c45 -61 70 -64 416 -61 306 3 310 3 343
26 56 41 63 66 66 240 l2 157 1049 1 c578 1 1057 0 1066 -2 13 -4 15 -27 15
-158 1 -169 8 -196 67 -240 27 -20 41 -21 345 -24 351 -3 366 -1 413 62 l24
31 0 715 c0 393 -3 731 -7 752 -4 20 -17 59 -28 87 -23 60 -23 60 65 59 119
-1 131 1 159 28 20 21 26 37 26 70 0 25 -4 52 -9 62 -5 9 -20 47 -32 84 -28
83 -64 129 -125 158 -39 19 -64 23 -155 23 l-109 1 -26 71 c-14 38 -30 79 -35
90 -12 28 -51 128 -54 140 -3 12 -14 44 -25 70 -9 20 -137 350 -171 439 -21
57 -60 119 -92 146 -12 10 -33 29 -47 41 -56 49 -294 141 -420 163 -106 18
-139 22 -220 31 -30 3 -82 7 -114 10 -33 3 -61 7 -63 9 -2 2 -6 41 -7 87 -4
91 -13 125 -42 150 -49 42 -58 43 -376 45 -272 1 -312 -1 -346 -16z m683 -584
c112 -5 305 -21 350 -30 11 -2 43 -7 70 -10 116 -17 258 -63 310 -101 29 -21
62 -93 185 -405 37 -93 119 -366 120 -397 0 -14 -245 -73 -365 -88 -22 -3 -65
-10 -95 -15 -30 -5 -82 -12 -115 -15 -33 -3 -76 -7 -95 -10 -40 -6 -108 -11
-270 -22 -146 -10 -765 -9 -890 0 -52 5 -126 10 -165 13 -38 3 -85 7 -104 10
-18 2 -59 7 -90 10 -146 13 -538 89 -572 109 -15 10 110 416 167 543 13 29 24
55 24 57 0 19 93 194 111 210 55 47 179 85 355 109 167 23 193 25 434 32 124
4 226 7 227 8 4 3 275 -2 408 -8z m-1725 -1531 c180 -58 445 -182 495 -232 30
-30 35 -42 35 -83 0 -38 -5 -53 -26 -73 -31 -31 -39 -34 -121 -45 -68 -9 -385
-8 -472 3 -86 10 -159 36 -199 71 l-36 31 -1 129 c0 87 4 140 13 161 32 74
153 89 312 38z m3015 14 c60 -30 70 -57 70 -199 0 -115 -2 -132 -21 -156 -51
-69 -162 -95 -428 -98 -200 -3 -311 6 -353 27 -72 38 -70 153 4 203 94 62 454
213 548 230 16 3 31 7 33 9 9 9 121 -4 147 -16z"/>
</g>
</svg>
